PathFileType   4   (X/Y/Z)
DataRate	CameraRate	NumFrames	NumMarkers	Units	OrigDataRate	OrigDataStartFrame	OrigNumFrames
120.0	120.0	11	37	mm	120.0	21	161
Frame#	Time	midhip	hip_r	hip_l	knee_r	knee_l	ankle_r	ankle_l	midasis	asis_r	asis_l	psis_r	psis_l	epicondLat_r	epicondLat_l	epicondMed_r	epicondMed_l	malleolusLat_r	malleolusLat_l	malleolusMedv_r	malleolusMedv_l	neck	subclavicle_r	subclavicle_l	sternalnotch	xyphoidprocess	thighwand_r	thighwand_l	upperleg1_r	upperleg1_l	upperleg2_r	upperleg2_l	shankwand_r	shankwand_l	lowerleg1_r	lowerleg1_l	toe_r	toe_l
 	 	X1	Y1	Z1	X2	Y2	Z2	X3	Y3	Z3	X4	Y4	Z4	X5	Y5	Z5	X6	Y6	Z6	X7	Y7	Z7	X8	Y8	Z8	X9	Y9	Z9	X10	Y10	Z10	X11	Y11	Z11	X12	Y12	Z12	X13	Y13	Z13	X14	Y14	Z14	X15	Y15	Z15	X16	Y16	Z16	X17	Y17	Z17	X18	Y18	Z18	X19	Y19	Z19	X20	Y20	Z20	X21	Y21	Z21	X22	Y22	Z22	X23	Y23	Z23	X24	Y24	Z24	X25	Y25	Z25	X26	Y26	Z26	X27	Y27	Z27	X28	Y28	Z28	X29	Y29	Z29	X30	Y30	Z30	X31	Y31	Z31	X32	Y32	Z32	X33	Y33	Z33	X34	Y34	Z34	X35	Y35	Z35	X36	Y36	Z36	X37	Y37	Z37

	21	0.44167	1501.858	841.038	-289.744	1503.321	824.644	-226.924	1500.891	823.311	-344.363	1591.060	457.288	-165.922	1536.007	467.639	-316.307	1354.886	154.354	-205.999	1456.294	67.439	-306.185	1558.503	906.409	-281.786	1552.155	906.061	-181.551	1564.851	906.757	-382.021	1399.089	928.071	-265.294	1402.189	929.109	-320.230	1587.002	465.328	-111.664	1554.921	465.478	-367.374	1603.931	447.343	-216.619	1516.481	453.338	-278.678	1338.223	162.896	-172.359	1468.777	64.036	-342.446	1384.558	157.690	-229.791	1470.915	78.581	-277.674	1456.510	1344.684	-269.778	1551.044	1268.628	-220.493	1553.374	1269.034	-328.157	1537.853	1280.395	-279.636	1585.289	1111.485	-278.334	1690.207	661.450	-165.910	1646.807	641.157	-289.533	1599.688	690.642	-137.601	1589.377	674.258	-365.941	1613.459	606.827	-128.758	1594.397	587.338	-354.984	1392.740	267.105	-94.535	1471.906	178.076	-418.259	1409.513	268.118	-133.422	1474.393	185.644	-375.662	1427.839	82.832	-151.902	1584.541	37.939	-292.305
	22	0.45000	1506.055	841.163	-289.661	1507.658	824.885	-226.799	1505.000	823.371	-344.231	1600.001	458.599	-166.253	1537.516	467.487	-316.352	1370.630	150.195	-203.590	1456.382	67.465	-306.120	1562.805	906.516	-281.894	1556.651	906.330	-181.657	1568.959	906.702	-382.132	1403.439	928.303	-265.002	1406.427	929.327	-319.934	1596.368	466.656	-111.968	1556.303	465.200	-367.461	1612.732	448.569	-216.743	1518.044	453.482	-278.629	1353.940	158.530	-169.912	1468.755	64.027	-342.415	1400.098	154.126	-227.581	1471.003	78.629	-277.642	1460.788	1344.792	-270.017	1555.383	1268.852	-220.777	1557.666	1269.079	-328.469	1542.213	1280.527	-279.937	1589.667	1111.626	-278.385	1696.637	663.825	-167.447	1649.654	640.210	-289.778	1606.058	692.026	-138.314	1592.396	673.860	-365.964	1621.066	608.383	-129.401	1596.796	586.956	-355.048	1406.458	264.368	-92.907	1472.096	178.142	-418.275	1422.934	265.653	-131.891	1474.758	185.707	-375.703	1445.499	80.879	-149.732	1584.539	37.948	-292.396
	23	0.45833	1510.206	841.282	-289.522	1511.937	825.114	-226.621	1509.076	823.418	-344.046	1608.849	459.929	-166.741	1538.973	467.330	-316.377	1386.540	145.998	-201.126	1456.475	67.490	-306.067	1567.071	906.603	-281.940	1561.090	906.581	-181.703	1573.052	906.626	-382.176	1407.753	928.539	-264.683	1410.638	929.550	-319.615	1605.629	467.981	-112.429	1557.654	464.925	-367.519	1620.736	449.933	-217.038	1519.640	453.541	-278.526	1369.850	154.122	-167.397	1468.744	64.022	-342.394	1415.739	150.480	-225.296	1471.115	78.688	-277.620	1465.112	1344.879	-270.365	1559.774	1269.083	-220.994	1561.989	1269.098	-328.700	1546.572	1280.637	-280.218	1594.099	1111.760	-278.319	1702.946	666.154	-168.986	1652.426	639.258	-289.933	1612.413	693.427	-138.839	1595.291	673.404	-365.935	1628.416	609.932	-129.998	1599.132	586.552	-355.059	1420.315	261.589	-91.262	1472.291	178.212	-418.294	1436.468	263.090	-130.319	1475.040	185.767	-375.731	1463.351	78.977	-147.498	1584.517	37.949	-292.491
	24	0.46667	1514.308	841.372	-289.326	1516.172	825.329	-226.395	1513.124	823.450	-343.813	1617.607	461.276	-167.380	1540.399	467.170	-316.386	1402.601	141.789	-198.642	1456.586	67.519	-306.024	1571.309	906.669	-281.929	1565.486	906.812	-181.695	1577.132	906.526	-382.164	1412.036	928.771	-264.334	1414.827	929.770	-319.266	1614.776	469.296	-113.042	1558.995	464.655	-367.553	1628.836	451.253	-217.425	1521.171	453.247	-278.599	1385.939	149.695	-164.846	1468.754	64.024	-342.383	1431.282	146.837	-223.109	1471.232	78.743	-277.617	1469.522	1344.936	-270.754	1564.193	1269.302	-221.189	1566.374	1269.108	-328.894	1550.929	1280.719	-280.478	1598.562	1111.881	-278.217	1709.141	668.430	-170.494	1655.134	638.299	-290.005	1618.585	694.690	-139.371	1597.808	672.822	-365.954	1635.638	611.457	-130.636	1601.192	585.874	-355.193	1434.307	258.768	-89.613	1472.498	178.284	-418.312	1450.139	260.494	-128.733	1475.277	185.838	-375.766	1481.360	77.143	-145.214	1584.473	37.939	-292.582
	25	0.47500	1518.357	841.411	-289.075	1520.376	825.527	-226.125	1517.151	823.463	-343.535	1626.261	462.629	-168.160	1541.815	467.012	-316.378	1418.799	137.588	-196.171	1456.719	67.553	-305.991	1575.526	906.713	-281.873	1569.854	907.023	-181.640	1581.199	906.402	-382.105	1416.294	928.995	-263.952	1418.997	929.980	-318.883	1623.791	470.592	-113.795	1560.344	464.395	-367.565	1637.191	452.364	-217.613	1522.552	452.899	-278.966	1402.197	145.265	-162.293	1468.788	64.036	-342.381	1446.961	143.199	-220.892	1471.163	78.805	-277.657	1473.846	1344.958	-271.047	1568.584	1269.475	-221.409	1570.706	1269.069	-329.140	1555.285	1280.776	-280.716	1603.007	1111.961	-278.156	1715.232	670.645	-171.950	1657.790	637.330	-290.007	1624.596	695.874	-140.213	1600.399	672.293	-365.872	1642.718	612.935	-131.368	1603.262	585.168	-355.338	1448.425	255.907	-87.975	1472.724	178.357	-418.324	1463.876	257.902	-127.195	1475.507	185.913	-375.799	1499.496	75.391	-142.902	1584.413	37.918	-292.662
	26	0.48333	1522.404	841.451	-288.789	1524.563	825.707	-225.815	1521.158	823.455	-343.216	1634.790	463.980	-169.066	1543.236	466.861	-316.355	1435.120	133.409	-193.740	1456.872	67.595	-305.962	1579.727	906.734	-281.779	1574.207	907.216	-181.548	1585.248	906.252	-382.009	1420.536	929.201	-263.532	1423.151	930.173	-318.459	1632.651	471.861	-114.676	1561.710	464.148	-367.557	1645.467	453.617	-218.253	1523.959	452.818	-279.031	1418.608	140.847	-159.765	1468.846	64.058	-342.382	1463.087	139.649	-218.533	1471.014	78.834	-277.693	1478.048	1345.002	-271.284	1573.006	1269.608	-221.668	1575.035	1269.024	-329.423	1559.642	1280.811	-280.933	1607.529	1112.031	-278.194	1721.223	672.787	-173.344	1660.408	636.348	-289.955	1630.553	697.039	-141.032	1603.186	671.806	-365.727	1649.703	614.356	-132.225	1605.490	584.641	-355.291	1462.656	253.014	-86.364	1472.973	178.430	-418.323	1477.736	255.217	-125.713	1475.755	185.970	-375.796	1517.742	73.730	-140.593	1584.345	37.886	-292.722
	27	0.49167	1526.462	841.501	-288.485	1528.746	825.867	-225.468	1525.148	823.422	-342.859	1643.164	465.316	-170.082	1544.674	466.719	-316.314	1451.549	129.267	-191.374	1457.038	67.644	-305.931	1583.916	906.734	-281.656	1578.559	907.390	-181.429	1589.273	906.078	-381.883	1424.765	929.381	-263.068	1427.290	930.341	-317.988	1641.333	473.094	-115.665	1563.098	463.917	-367.529	1653.546	455.042	-219.363	1525.339	452.976	-278.689	1435.157	136.454	-157.287	1468.919	64.087	-342.379	1479.371	136.170	-216.301	1471.092	78.784	-277.655	1482.065	1345.093	-271.524	1577.426	1269.703	-221.881	1579.389	1269.004	-329.642	1563.998	1280.827	-281.132	1612.160	1112.118	-278.259	1727.118	674.845	-174.680	1663.007	635.344	-289.864	1636.473	698.274	-141.817	1605.993	671.342	-365.551	1656.595	615.682	-133.199	1607.712	584.235	-355.076	1476.983	250.098	-84.794	1473.244	178.504	-418.306	1491.766	252.391	-124.224	1476.024	186.003	-375.758	1536.082	72.169	-138.322	1584.283	37.843	-292.756
	28	0.50000	1530.568	841.582	-288.136	1532.940	826.005	-225.083	1529.124	823.362	-342.463	1651.358	466.626	-171.186	1546.134	466.588	-316.253	1468.070	125.180	-189.092	1457.201	67.696	-305.891	1588.096	906.714	-281.511	1582.924	907.548	-181.289	1593.268	905.880	-381.733	1428.990	929.528	-262.557	1431.415	930.480	-317.467	1649.819	474.283	-116.744	1564.504	463.700	-367.483	1661.275	456.476	-220.701	1526.676	453.020	-278.544	1451.826	132.106	-154.881	1468.994	64.119	-342.366	1495.647	132.490	-214.168	1471.219	78.734	-277.595	1486.230	1345.101	-271.775	1581.812	1269.795	-221.992	1583.679	1268.944	-329.802	1568.350	1280.823	-281.308	1616.651	1112.165	-278.201	1732.923	676.803	-175.973	1665.604	634.313	-289.754	1642.347	699.524	-142.635	1608.791	670.838	-365.325	1663.325	616.861	-134.245	1609.912	583.784	-354.909	1491.388	247.173	-83.276	1473.535	178.582	-418.269	1505.871	249.541	-122.764	1476.330	186.030	-375.712	1554.503	70.720	-136.131	1584.239	37.795	-292.763
	29	0.50833	1534.696	841.646	-287.746	1537.153	826.121	-224.665	1533.088	823.278	-342.032	1659.349	467.894	-172.359	1547.618	466.462	-316.171	1484.667	121.171	-186.912	1457.343	67.749	-305.837	1592.272	906.676	-281.350	1587.313	907.690	-181.135	1597.231	905.662	-381.565	1433.215	929.639	-261.993	1435.529	930.586	-316.892	1658.101	475.421	-117.891	1565.922	463.494	-367.419	1668.831	457.944	-222.501	1528.528	452.673	-278.647	1468.598	127.825	-152.564	1469.054	64.152	-342.336	1512.016	128.721	-212.064	1471.406	78.689	-277.552	1490.904	1344.989	-272.013	1586.228	1269.915	-222.076	1587.950	1268.797	-329.965	1572.702	1280.799	-281.451	1620.844	1112.114	-277.984	1738.638	678.641	-177.249	1668.210	633.255	-289.640	1648.009	700.465	-143.232	1611.523	670.236	-365.132	1669.840	617.935	-135.333	1612.289	583.240	-354.844	1505.853	244.252	-81.822	1473.836	178.666	-418.212	1519.965	246.761	-121.409	1476.703	186.095	-375.674	1572.990	69.399	-134.067	1584.222	37.745	-292.746
	30	0.51667	1538.794	841.634	-287.343	1541.396	826.216	-224.218	1537.044	823.170	-341.570	1667.124	469.104	-173.582	1549.115	466.335	-316.061	1501.329	117.267	-184.848	1457.457	67.804	-305.766	1596.447	906.623	-281.177	1591.733	907.817	-180.971	1601.162	905.429	-381.383	1437.448	929.712	-261.373	1439.636	930.658	-316.263	1666.178	476.498	-119.089	1567.338	463.286	-367.334	1676.606	459.426	-224.171	1529.997	452.636	-278.211	1485.461	123.640	-150.354	1469.090	64.185	-342.287	1528.430	125.171	-210.145	1471.764	78.604	-277.496	1495.498	1344.899	-272.191	1590.684	1270.011	-222.197	1592.245	1268.646	-330.110	1577.062	1280.759	-281.558	1625.119	1112.062	-277.810	1744.258	680.332	-178.540	1670.833	632.176	-289.534	1653.466	701.230	-143.676	1614.222	669.695	-364.911	1676.297	619.145	-136.320	1614.439	582.591	-354.607	1520.361	241.352	-80.439	1474.140	178.760	-418.136	1534.017	244.031	-120.169	1477.077	186.185	-375.609	1591.527	68.221	-132.176	1584.237	37.697	-292.714
	31	0.52500	1542.867	841.558	-286.933	1545.675	826.289	-223.748	1541.000	823.042	-341.082	1674.674	470.237	-174.835	1550.609	466.192	-315.917	1518.053	113.494	-182.917	1457.542	67.862	-305.679	1600.628	906.557	-280.998	1596.190	907.929	-180.802	1605.066	905.186	-381.194	1441.695	929.748	-260.696	1443.738	930.693	-315.578	1674.056	477.502	-120.320	1568.730	463.062	-367.221	1682.385	460.847	-226.154	1530.034	453.383	-277.042	1502.407	119.578	-148.270	1469.102	64.222	-342.222	1544.829	121.836	-208.377	1472.001	78.557	-277.409	1499.565	1344.915	-272.335	1595.116	1270.027	-222.310	1596.558	1268.572	-330.175	1581.430	1280.702	-281.627	1629.694	1112.076	-277.801	1749.783	681.854	-179.878	1673.473	631.089	-289.444	1658.895	702.034	-144.193	1617.001	669.232	-364.571	1681.995	620.168	-137.431	1615.968	581.752	-354.092	1534.896	238.483	-79.137	1474.438	178.868	-418.044	1548.088	241.353	-119.040	1477.416	186.272	-375.491	1610.088	67.195	-130.503	1584.283	37.656	-292.675
